<?xml version="1.0" standalone="no"?><!DOCTYPE svg PUBLIC "-//W3C//DTD SVG 1.1//EN" "http://www.w3.org/Graphics/SVG/1.1/DTD/svg11.dtd"><svg class="icon" width="200px" height="200.00px" viewBox="0 0 1024 1024" version="1.1" xmlns="http://www.w3.org/2000/svg"><path fill="#2c2c2c" d="M982.40533 999.91733c-16.420002 15.325336-42.327117 14.473928-57.652452-1.946075L701.927364 760.306925c-15.325336-16.420002-11.798076-39.651265 1.946074-57.409194 5.959853-7.662668 10.825039-13.014372 15.325336-17.27141l-1.702815-0.364889c62.03112-65.55838 100.466089-153.618244 100.466088-250.800332C817.840418 232.312626 653.518764 68.477491 450.640513 68.477491S83.562237 232.312626 83.562237 434.33947 247.883891 800.079819 450.640513 800.079819c63.733935 0 123.575722-16.176743 175.75484-44.63808V816.134933c-53.638674 24.690818-113.237202 38.799857-176.241359 38.799857C217.354849 855.05642 28.585637 666.895356 28.585637 434.704359c0-232.069367 188.769212-420.352061 421.689987-420.352061 232.799145 0 421.689987 188.161064 421.689987 420.352061 0 105.939423-39.529635 202.391733-104.479867 276.220929l216.98729 231.461219c15.325336 16.420002 14.473928 42.205488-2.067704 57.530823z"  /></svg>