<?xml version="1.0" standalone="no"?><!DOCTYPE svg PUBLIC "-//W3C//DTD SVG 1.1//EN" "http://www.w3.org/Graphics/SVG/1.1/DTD/svg11.dtd"><svg class="icon" width="200px" height="200.00px" viewBox="0 0 1024 1024" version="1.1" xmlns="http://www.w3.org/2000/svg"><path fill="#2c2c2c" d="M947.38109 1024c-40.196872 0-72.844077-26.525854-72.844077-59.377105V331.471157c0-32.749228 32.647205-59.377105 72.844077-59.377105s72.844077 26.627877 72.844077 59.377105v633.151738c0 32.749228-32.647205 59.377105-72.844077 59.377105z m-291.47833 0c-40.298894 0-72.844077-26.525854-72.844077-59.377105V489.70808c0-32.749228 32.647205-59.377105 72.844077-59.377105s72.844077 26.627877 72.844077 59.377105v474.914815c0 32.749228-32.647205 59.377105-72.844077 59.377105z m-291.47833 0c-40.298894 0-72.844077-26.525854-72.844077-59.377105v-316.269801c0-32.749228 32.647205-59.377105 72.844077-59.377105s72.844077 26.627877 72.844077 59.377105v316.269801c0 32.749228-32.647205 59.377105-72.844077 59.377105z m-291.478331 0C32.647205 1024 0 997.372123 0 964.622895V805.977882c0-32.749228 32.647205-59.377105 72.844077-59.377105s72.844077 26.525854 72.844077 59.377105v158.645013c0 32.749228-32.647205 59.377105-72.844077 59.377105z m0 0M768.433596 247.608648v-56.112384H795.77563V153.033775h-27.342034V20.404503h-63.662051l-85.800936 138.036465v33.055296h100.900269v56.010361zM668.349507 153.033775v-0.714158l30.606755-51.011258q10.916409-21.424729 21.322706-43.35957h1.020225q-1.22427 22.444954-1.326293 43.35957V153.033775z m0 0M1020.225167 111.408588h-87.331274V153.033775H969.213909v53.051709a74.476437 74.476437 0 0 1-25.50563 3.366743 70.191491 70.191491 0 0 1-52.745641-21.526751 85.086779 85.086779 0 0 1-20.404503-59.479127 71.415762 71.415762 0 0 1 22.138886-55.704295 81.618013 81.618013 0 0 1 54.990137-18.160008 164.358274 164.358274 0 0 1 31.831025 2.754608 104.471057 104.471057 0 0 1 22.444953 7.039554L1012.471456 20.404503a163.848162 163.848162 0 0 0-25.607652-6.631463A221.082794 221.082794 0 0 0 947.38109 10.202252a142.015343 142.015343 0 0 0-94.880941 32.03507q-36.728106 31.62698-38.156421 89.065657a146.198266 146.198266 0 0 0 8.569892 50.093056 105.695327 105.695327 0 0 0 24.485404 39.176646q31.62698 30.606755 94.574873 30.606755a248.220783 248.220783 0 0 0 44.481817-4.386968 269.849557 269.849557 0 0 0 33.871475-8.467869z m0 0"  /></svg>