<?xml version="1.0" standalone="no"?><!DOCTYPE svg PUBLIC "-//W3C//DTD SVG 1.1//EN" "http://www.w3.org/Graphics/SVG/1.1/DTD/svg11.dtd"><svg class="icon" width="200px" height="200.00px" viewBox="0 0 1024 1024" version="1.1" xmlns="http://www.w3.org/2000/svg"><path fill="#2c2c2c" d="M512.3 985.8c261.6 0 474.5-212.9 474.5-474.5S773.9 36.8 512.3 36.8 37.8 249.7 37.8 511.3s212.8 474.5 474.5 474.5m0 36.5c-282.2 0-511-228.8-511-511S230.1 0.3 512.3 0.3s511 228.8 511 511c-0.1 282.2-228.8 511-511 511z"  /><path fill="#2c2c2c" d="M512.3 766.8c-10.1 0-18.3-8.2-18.3-18.2V274c0-10.1 8.2-18.3 18.3-18.3 10 0 18.3 8.2 18.3 18.3v474.5c-0.1 10.1-8.3 18.3-18.3 18.3z"  /><path fill="#2c2c2c" d="M749.5 529.6H275c-10.1 0-18.3-8.2-18.3-18.3 0-10.1 8.2-18.3 18.3-18.3h474.5c10 0 18.3 8.2 18.3 18.3 0 10.1-8.2 18.3-18.3 18.3z"  /></svg>