<?xml version="1.0" standalone="no"?><!DOCTYPE svg PUBLIC "-//W3C//DTD SVG 1.1//EN" "http://www.w3.org/Graphics/SVG/1.1/DTD/svg11.dtd"><svg class="icon" width="200px" height="200.00px" viewBox="0 0 1024 1024" version="1.1" xmlns="http://www.w3.org/2000/svg"><path fill="#2c2c2c" d="M492.14550781 195.52783228c-185.63818334 0-336.128906 131.7304685-336.12890599 294.23144558 0 92.86523438 49.26708959 175.55273412 126.04833984 229.47363281l0 148.82958985 147.26074245-89.39794949c20.36865234 3.37500025 41.33056641 5.31298853 62.81982447 5.31298855 185.63818334 0 336.14208984-131.71728541 336.14208984-294.21826172S677.77050807 195.52783228 492.14550781 195.52783228zM324.08105443 531.80175756c-23.20312475 0-42.01611353-18.82617188-42.01611353-42.02929662 0-23.22949244 18.81298803-42.02929662 42.01611353-42.02929662s42.01611353 18.81298803 42.01611354 42.02929662C366.09716797 512.97558568 347.28417994 531.80175756 324.08105443 531.80175756zM492.14550781 531.80175756c-23.20312475 0-42.01611353-18.82617188-42.01611353-42.02929662 0-23.22949244 18.81298803-42.02929662 42.01611353-42.02929662s42.01611353 18.81298803 42.01611354 42.02929662C534.16162135 512.97558568 515.34863256 531.80175756 492.14550781 531.80175756zM660.20996119 531.80175756c-23.21630859 0-42.02929662-18.82617188-42.02929661-42.02929662 0-23.22949244 18.81298803-42.02929662 42.02929661-42.02929662 23.20312475 0 42.01611353 18.81298803 42.01611353 42.02929662C702.22607397 512.97558568 683.41308594 531.80175756 660.20996119 531.80175756z" /></svg>