<?xml version="1.0" standalone="no"?><!DOCTYPE svg PUBLIC "-//W3C//DTD SVG 1.1//EN" "http://www.w3.org/Graphics/SVG/1.1/DTD/svg11.dtd"><svg class="icon" width="200px" height="200.00px" viewBox="0 0 1024 1024" version="1.1" xmlns="http://www.w3.org/2000/svg"><path fill="#2c2c2c" d="M996.693333 704.121905V401.310476c-0.487619-28.281905-18.041905-53.150476-45.83619-61.44L850.895238 312.07619v0.48762L707.047619 608.548571l-150.186667-377.417142v-0.487619l-154.575238-42.910477v0.487619-0.487619c-6.826667-1.950476-14.140952-2.438095-21.455238-2.438095-43.885714 0-77.04381 34.620952-77.043809 77.04381v448.609523c0.487619 40.472381 31.695238 73.142857 73.142857 73.142858l7.314286-0.487619 62.902857-5.851429-4.388572-0.487619V308.662857l183.832381 451.535238 0.487619 0.487619 136.533334-13.165714v0.487619l177.980952-345.234286v251.611429c0 88.746667-68.266667 165.302857-158.476191 177.493333L339.870476 872.838095l-11.215238 0.487619c-75.580952 0-135.070476-59.001905-135.070476-132.144762V241.371429l-1.950476-2.438096c0-79.481905 66.80381-144.335238 148.23619-144.335238 15.60381 0 30.232381 2.438095 44.860953 6.826667l511.024761 141.409524c2.438095 0.975238 5.36381 0.975238 8.289524 0.975238 15.11619 0 27.306667-11.702857 27.306667-26.819048 0-11.702857-7.801905-21.455238-18.529524-25.35619l-0.487619 0.487619 0.487619-0.487619L360.838095 39.497143C333.04381 29.257143 304.274286 24.380952 274.529524 24.380952 138.48381 24.380952 27.794286 132.144762 27.306667 264.777143v513.950476c0 121.904762 101.912381 220.891429 227.230476 220.891429 6.339048 0 13.165714-0.487619 19.504762-0.975238l494.933333-46.811429h0.975238c130.194286-13.165714 226.742857-119.954286 226.742857-247.710476z m0 0" /></svg>