<?xml version="1.0" standalone="no"?><!DOCTYPE svg PUBLIC "-//W3C//DTD SVG 1.1//EN" "http://www.w3.org/Graphics/SVG/1.1/DTD/svg11.dtd"><svg class="icon" width="200px" height="200.00px" viewBox="0 0 1024 1024" version="1.1" xmlns="http://www.w3.org/2000/svg"><path fill="#2c2c2c" d="M896.194684 783.418666c0 18.874883-16.804734 34.731012-36.815487 34.731012L164.623873 818.149679c-20.010753 0-36.820604-15.85613-36.820604-34.731012 0-7.547907 3.199878-15.10093 7.206122-21.142529l0 0 0.795109-0.751107c1.603521-2.266623 3.204995-3.778046 5.603625-5.285377l67.237357-63.421448L208.645482 442.162422c0-137.409556 101.653191-248.390183 236.120742-278.591019l0-27.934213c0-36.993542 27.211758-69.457932 66.432015-69.457932 39.22435 0 66.435085 32.464389 66.435085 69.457932l0 27.934213c134.467551 30.200836 236.120742 141.937686 236.120742 278.591019l0 250.655783 67.232241 63.421448c2.403746 1.506307 4.006244 3.018753 5.604648 5.285377l0.800225 0.751107 0 0C892.995829 768.317737 896.194684 775.87076 896.194684 783.418666L896.194684 783.418666zM726.509027 442.162422c0-110.980627-97.647971-202.337311-214.509539-202.337311-116.856451 0-214.508515 91.355661-214.508515 202.337311l0 292.935726 428.216805 0L725.707778 442.162422 726.509027 442.162422zM511.999488 957.820742c-52.022841 0-88.844467-33.975812-88.844467-83.802638l177.688935 0C600.843956 923.088706 564.028469 957.820742 511.999488 957.820742L511.999488 957.820742zM511.999488 957.820742" /></svg>