<?xml version="1.0" standalone="no"?><!DOCTYPE svg PUBLIC "-//W3C//DTD SVG 1.1//EN" "http://www.w3.org/Graphics/SVG/1.1/DTD/svg11.dtd"><svg class="icon" width="200px" height="200.00px" viewBox="0 0 1024 1024" version="1.1" xmlns="http://www.w3.org/2000/svg"><path fill="#2c2c2c" d="M933.6 1024H89.431l-5.68-3.287c-3.338-1.928-33.062-19.284-47.558-31.331C12.314 969.573-0.542 941.74 0.03 911.028l0.107-8.235c0.157-16.501 0.32-33.574 4.93-50.978 10.824-40.996 41.228-67.565 71.44-91.301 39.55-31.096 86.287-57.475 151.523-85.522 31.068-13.355 64.274-26.165 101.519-39.09 15.966-5.547 32.636-22.906 42.473-44.191 7.78-16.832 10.086-33.617 6.32-45.43l-1.817-2.143c-44.304-53.722-79.529-101.395-96.21-184.144-13.41-66.473-11.486-129.28 5.717-186.666C312.391 85.34 369.313 28.14 450.613 7.905c12.272-3.059 24.199-5.214 36.018-6.477V0.072L536.39 0v1.428c11.807 1.263 23.759 3.418 36.042 6.49 81.287 20.223 138.196 77.422 164.57 165.408 17.178 57.378 19.103 120.172 5.725 186.656-16.727 82.77-51.94 130.447-96.23 184.155l-1.618 1.907c-0.071 0.07-0.118 0.143-0.166 0.215-3.779 11.927-1.472 28.666 6.297 45.45 9.838 21.307 26.493 38.643 42.46 44.164 37.14 12.93 70.334 25.714 101.535 39.118 65.22 28.047 111.935 54.426 151.523 85.521 28.868 22.69 60.59 50.307 71.426 91.328 4.585 17.333 4.751 34.377 4.918 50.854l0.12 8.333c0.568 30.712-12.285 58.545-36.19 78.377-14.494 12.024-44.173 29.38-47.521 31.308L933.6 1024zM511.415 48.832h-0.32c-15.91 0.085-31.84 2.176-48.722 6.392-64.642 16.082-108.29 60.534-129.748 132.124-15.076 50.32-16.586 103.638-4.62 162.982 13.352 66.189 37.326 103.697 86.035 162.766 3.031 3.513 6.692 7.762 9.042 13.806 9.42 24.355 6.901 55.43-6.902 85.309-15.585 33.71-42.01 59.781-70.689 69.755-36.128 12.549-68.265 24.931-98.265 37.833-61.207 26.306-104.595 50.711-140.7 79.09-24.698 19.382-47.44 38.977-54.425 65.427-3.052 11.502-3.172 24.831-3.303 38.95l-0.107 8.642c-0.297 16.045 5.942 29.475 18.557 39.928 7.961 6.62 24.995 17.213 35.31 23.4l671.771-0.258 146.13 0.259c10.314-6.188 27.373-16.806 35.286-23.378 12.641-10.475 18.89-23.904 18.58-39.926l-0.12-8.76c-0.115-14.072-0.259-27.384-3.3-38.833-6.986-26.475-29.726-46.07-54.416-65.451-36.115-28.38-79.502-52.785-140.689-79.091-30.102-12.95-62.254-25.333-98.275-37.854-28.677-9.953-55.102-36.025-70.69-69.734-13.802-29.88-16.324-60.954-6.911-85.284 2.281-6.01 6.01-10.296 8.22-12.856 49.518-60.034 73.515-97.553 86.87-163.741 11.953-59.357 10.455-112.675-4.633-162.982-21.457-71.59-65.083-116.042-129.712-132.114-16.894-4.226-32.837-6.318-48.746-6.402h-0.508z" /></svg>