<?xml version="1.0" standalone="no"?><!DOCTYPE svg PUBLIC "-//W3C//DTD SVG 1.1//EN" "http://www.w3.org/Graphics/SVG/1.1/DTD/svg11.dtd"><svg t="1558192453190" class="icon" style="" viewBox="0 0 1024 1024" version="1.1" xmlns="http://www.w3.org/2000/svg" p-id="10295" xmlns:xlink="http://www.w3.org/1999/xlink" width="200" height="200"><defs><style type="text/css"></style></defs><path d="M767.54821 447.784466" p-id="10296" fill="#dbdbdb"></path><path d="M703.58748 639.666658" p-id="10297" fill="#dbdbdb"></path><path d="M839.760882 387.753231 507.21809 84.47495l-1.050935 0.855484c-12.841469-13.075807-31.488155-21.309328-52.250014-21.309328-38.733163 0-70.13229 28.636201-70.13229 63.960731 0 16.33606 6.725168 31.233352 17.774829 42.537815l-0.230244 0.187265 331.152119 302.009382c23.537066 21.465894 23.537066 56.591903 0 78.057797L403.084405 851.184049l0.160659 0.13303c-12.046361 11.484565-19.460214 27.04496-19.460214 44.192501 0 35.32453 31.399127 63.960731 70.13229 63.960731 21.286816 0 40.34487-8.661264 53.206806-22.317285l0.039909 0.032746 332.597027-303.3274C913.971048 566.17997 913.971048 455.432657 839.760882 387.753231z" p-id="10298" fill="#dbdbdb"></path></svg>