<?xml version="1.0" standalone="no"?><!DOCTYPE svg PUBLIC "-//W3C//DTD SVG 1.1//EN" "http://www.w3.org/Graphics/SVG/1.1/DTD/svg11.dtd"><svg t="1558266414167" class="icon" style="" viewBox="0 0 1024 1024" version="1.1" xmlns="http://www.w3.org/2000/svg" p-id="28945" xmlns:xlink="http://www.w3.org/1999/xlink" width="200" height="200"><defs><style type="text/css"></style></defs><path d="M635.446857 256c82.486857 0 149.61981 62.006857 149.61981 138.806857 0 23.893333-6.826667 47.213714-19.340191 68.266667-18.767238 30.72-48.920381 53.479619-85.327238 64.286476-9.679238 2.846476-17.066667 3.986286-23.899428 3.986286-15.926857 0-28.440381-12.519619-28.440381-28.446476 0-15.932952 12.513524-28.446476 28.440381-28.446477 1.13981 0 3.413333 0 6.259809-1.133714 24.46019-6.832762 43.806476-21.052952 54.607238-39.826286 7.399619-11.946667 10.812952-25.033143 10.812953-38.680381 0-44.946286-41.526857-81.913905-92.16-81.913904-17.633524 0-34.706286 4.547048-50.060191 13.080381-26.733714 15.366095-42.660571 40.96-42.660571 68.839619v238.366476c0 48.347429-26.73981 92.726857-71.113143 117.753905-23.893333 13.659429-50.639238 20.48-77.93981 20.48-82.486857 0-149.613714-62.006857-149.613714-138.806858 0-23.893333 6.820571-47.21981 19.34019-68.266666 18.773333-30.726095 48.926476-53.473524 85.339429-64.286476 10.233905-2.840381 17.060571-3.986286 23.893333-3.986286 15.926857 0 28.440381 12.519619 28.440381 28.446476 0 15.932952-12.513524 28.446476-28.440381 28.446476-1.13981 0-3.419429 0-6.259809 1.133715-24.466286 7.399619-43.806476 21.61981-54.613334 39.82019-7.393524 11.946667-10.806857 25.033143-10.806857 38.686476 0 44.94019 41.526857 81.92 92.726857 81.92 17.639619 0 34.706286-4.553143 50.072381-13.086476 26.733714-15.36 42.660571-40.953905 42.660572-68.833524V394.806857c0-48.359619 26.733714-92.726857 71.113143-117.76C581.400381 262.826667 608.14019 256 635.446857 256zM56.886857 512c0 251.446857 203.66019 455.107048 455.113143 455.107048 251.446857 0 455.107048-203.66019 455.107048-455.107048S763.446857 56.892952 512 56.892952 56.886857 260.553143 56.886857 512zM0 512C0 229.266286 229.266286 0 512 0s512 229.266286 512 512-229.266286 512-512 512S0 794.733714 0 512z m0 0" fill="#797FD1" p-id="28946"></path></svg>