<?xml version="1.0" standalone="no"?><!DOCTYPE svg PUBLIC "-//W3C//DTD SVG 1.1//EN" "http://www.w3.org/Graphics/SVG/1.1/DTD/svg11.dtd"><svg t="1558165389035" class="icon" style="" viewBox="0 0 1024 1024" version="1.1" xmlns="http://www.w3.org/2000/svg" p-id="5162" xmlns:xlink="http://www.w3.org/1999/xlink" width="200" height="200"><defs><style type="text/css"></style></defs><path d="M146.285714 0h731.428572a146.285714 146.285714 0 0 1 146.285714 146.285714v731.428572a146.285714 146.285714 0 0 1-146.285714 146.285714H146.285714a146.285714 146.285714 0 0 1-146.285714-146.285714V146.285714a146.285714 146.285714 0 0 1 146.285714-146.285714z m365.787429 454.217143c103.131429 0 181.979429-75.117714 181.979428-173.202286 0-98.304-78.921143-173.202286-181.979428-173.202286-103.131429 0-181.906286 74.898286-181.906286 173.202286C330.166857 379.099429 408.868571 454.290286 512 454.290286z m0 115.565714c-139.629714 0-424.594286 69.193143-424.594286 202.020572v144.384h849.042286v-144.384c0-132.827429-284.964571-202.093714-424.448-202.093715zM512 875.885714l-60.708571-87.625143L512 613.083429l60.562286 175.250285L512 875.958857z" p-id="5163" fill="#1296db"></path></svg>