<?xml version="1.0" standalone="no"?><!DOCTYPE svg PUBLIC "-//W3C//DTD SVG 1.1//EN" "http://www.w3.org/Graphics/SVG/1.1/DTD/svg11.dtd"><svg t="1558265722247" class="icon" style="" viewBox="0 0 1024 1024" version="1.1" xmlns="http://www.w3.org/2000/svg" p-id="20403" xmlns:xlink="http://www.w3.org/1999/xlink" width="200" height="200"><defs><style type="text/css"></style></defs><path d="M512 125.7472c-14.5408 0-29.3888 0.8192-43.4176 2.3552-34.816 3.8912-68.096 12.4928-99.84 25.088 0 0 259.9936 256.9216 266.6496 266.6496V145.7152c-7.8848-2.3552-15.6672-4.8128-23.4496-7.4752-32.1536-8.192-65.4336-12.4928-99.9424-12.4928z m0 0" fill="#F95452" p-id="20404"></path><path d="M783.36 237.7728c-10.5472-10.5472-21.1968-19.968-32.4608-28.9792-27.8528-21.9136-57.1392-39.5264-88.4736-52.8384 0 0 1.9456 365.3632 0 377.1392l193.8432-193.8432c-3.4816-7.4752-7.7824-14.4384-11.776-21.504-16.7936-29.0816-36.7616-56.1152-61.1328-79.9744z m0 0" fill="#6467F0" p-id="20405"></path><path d="M868.352 369.3568S611.4304 629.3504 601.7024 636.0064h274.1248c2.3552-7.8848 4.8128-15.6672 7.4752-23.4496 8.6016-31.744 13.312-65.024 13.312-99.4304 0-14.5408-0.8192-29.3888-2.3552-43.4176-4.7104-35.328-12.9024-69.0176-25.9072-100.352z m0 0" fill="#5283F0" p-id="20406"></path><path d="M486.912 664.576l193.8432 193.8432c7.4752-3.4816 14.4384-7.8848 21.9136-11.776 28.5696-16.4864 55.1936-36.4544 79.872-61.1328 10.5472-10.5472 19.968-21.1968 28.9792-32.4608 21.9136-27.8528 39.5264-57.1392 52.8384-88.4736 0.1024 0-365.6704 2.048-377.4464 0z m0 0" fill="#00B1FE" p-id="20407"></path><path d="M387.8912 603.9552v274.1248c7.7824 2.3552 16.0768 4.7104 23.4496 7.4752 31.744 8.6016 65.024 13.312 99.4304 13.312 14.5408 0 29.3888-0.8192 43.4176-2.3552 34.0992-3.8912 67.7888-12.4928 99.84-25.088 0.1024-0.8192-259.4816-258.1504-266.1376-267.4688z m0 0" fill="#65D020" p-id="20408"></path><path d="M360.448 489.984L166.6048 683.8272c3.4816 7.4752 7.8848 14.5408 11.776 21.9136 16.4864 28.5696 36.4544 55.1936 61.1328 79.872 10.5472 10.5472 21.1968 19.968 32.4608 28.9792 27.8528 21.9136 57.1392 39.5264 88.4736 52.8384 0-0.7168-1.9456-366.08 0-377.4464z m0 0" fill="#9AD122" p-id="20409"></path><path d="M139.5712 412.0576c-8.6016 31.744-12.9024 65.024-12.9024 99.4304 0 14.4384 0.8192 29.3888 2.3552 43.4176 3.8912 34.816 12.4928 68.096 25.088 99.84 0 0 256.9216-259.9936 266.3424-266.6496h-273.408c-2.7648 8.2944-5.5296 15.6672-7.4752 23.9616z m0 0" fill="#FFC817" p-id="20410"></path><path d="M318.1568 178.5856c-28.5696 16.4864-55.1936 36.4544-79.4624 61.1328-10.5472 10.5472-19.968 21.504-28.9792 32.4608-21.9136 27.8528-39.5264 57.1392-52.8384 88.4736 0 0 365.7728-1.9456 377.1392 0L339.6608 167.2192c-7.168 3.6864-14.4384 7.4752-21.504 11.3664z m0 0" fill="#FF7612" p-id="20411"></path></svg>