<?xml version="1.0" standalone="no"?><!DOCTYPE svg PUBLIC "-//W3C//DTD SVG 1.1//EN" "http://www.w3.org/Graphics/SVG/1.1/DTD/svg11.dtd"><svg t="1558266369924" class="icon" style="" viewBox="0 0 1024 1024" version="1.1" xmlns="http://www.w3.org/2000/svg" p-id="28109" xmlns:xlink="http://www.w3.org/1999/xlink" width="200" height="200"><defs><style type="text/css"></style></defs><path d="M864.03 39.25q-5.24-4.2-45.09-25.7-39.84-21.49-81.77-8.9-12.59 4.19-28.84 12.58T674.26 36.1q-33.55 19.92-72.87 38.79-39.32 18.88-76.02 14.67h-19.93q-14.68 0-65.53-9.44-50.85-9.43-134.73-60.81-14.68-9.43-31.98-13.1t-34.07-1.57q-37.75 5.24-95.94 44.55Q85 88.5 51.45 206.99q-28.31 103.8-40.37 194.5Q-0.97 492.18 0.07 566.62q1.04 74.44 13.11 129.49 12.06 55.04 30.93 86.5 11.53 18.87 25.68 30.93 14.16 12.06 30.94 16.25h16.77q51.38 0 104.33-48.23 52.95-48.23 86.5-89.12 19.92-25.16 45.08-41.94 25.17-16.78 54.52-24.12 19.92-5.24 40.37-6.81 20.44-1.57 40.38-0.52h68.15q19.92 0 43.51 1.05 23.59 1.04 41.41 6.28 18.88 6.3 43 32.51 24.12 26.21 47.17 53.47 24.12 27.26 49.28 54 25.17 26.74 49.28 41.41 32.5 17.83 61.34 21.5 28.83 3.67 52.94-9.97 32.51-15.72 51.38-59.23 18.87-43.52 24.12-111.67 5.24-65 3.14-153.07t-18.88-175.62q-16.77-87.54-50.32-163.04-33.55-75.5-90.17-117.43z m110.09 604.97q-4.19 52.42-16.25 86.49-12.06 34.08-33.03 44.57-15.72 9.44-34.6 3.67-18.88-5.77-33.55-13.11-19.92-10.48-41.42-35.12-21.5-24.64-43.5-49.8-29.36-34.6-57.67-63.96-28.31-29.36-57.67-36.7-23.06-5.24-49.27-6.29-26.21-1.05-48.24-1.05h-66.06q-23.07-1.05-47.19 1.58-24.12 2.63-47.18 8.91-36.7 8.38-68.15 29.88-31.46 21.5-56.62 52.96-47.18 58.71-91.22 90.69-44.04 31.98-67.1 25.69-6.29-1.05-12.58-6.81-6.3-5.77-12.59-15.21-16.77-28.31-26.73-80.74-9.96-52.42-9.96-122.14T65.6 403.08q12.05-84.93 37.21-179.29 25.17-94.37 68.68-128.44Q215 61.28 251.7 56.04h7.34q7.34 0 13.1 1.57 5.77 1.58 11.01 5.77 90.17 56.62 148.36 68.16 58.19 11.53 79.16 9.43h11.54q48.23 4.19 94.36-17.3 46.13-21.49 83.88-43.5 16.77-9.44 30.92-17.3 14.15-7.87 22.55-8.91 22.02-6.29 48.23 6.3 26.21 12.58 37.75 19.92 49.28 36.69 77.59 107.99 28.3 71.3 42.46 153.08 14.16 81.78 15.73 163.56 1.58 81.78-1.57 139.45zM378.59 337.01h-73.4v-76.54q0-12.58-8.38-20.97-8.38-8.38-20.98-8.38h-2.09q-12.58 0-20.97 8.38-8.39 8.38-8.39 20.97v76.54h-73.39q-12.59 0-20.98 7.87-8.38 7.87-8.38 20.44v5.25q0 12.58 8.38 20.96 8.39 8.39 20.98 8.39h73.39v75.49q0 12.59 8.39 20.97 8.39 8.38 20.97 8.38h2.09q12.59 0 20.98-8.38 8.38-8.38 8.38-20.97v-75.49h73.4q12.58 0 20.97-8.39 8.38-8.38 8.38-20.96v-5.25q0-10.48-8.38-19.4-8.38-8.91-20.97-8.91z m415.19-63.95q0 18.87-13.63 32.5-13.63 13.63-33.55 13.63-18.87 0-32.5-13.63-13.63-13.63-13.63-32.5 0-18.88 13.63-32.51 13.63-13.63 32.5-13.63 19.92 0 33.55 13.63 13.63 13.63 13.63 32.51z m-97.51 97.51q0 18.87-13.63 32.5-13.63 13.63-33.55 13.63-18.87 0-32.5-13.63-13.63-13.63-13.63-32.5 0-18.88 13.63-32.51 13.63-13.63 32.5-13.63 19.92 0 33.55 13.63 13.63 13.63 13.63 32.51z m97.51 97.5q0 19.93-13.63 33.04t-33.55 13.11q-18.87 0-32.5-13.11-13.63-13.11-13.63-33.04 0-18.87 13.63-32.5 13.63-13.63 32.5-13.63 19.92 0 33.55 13.63 13.63 13.63 13.63 32.5z m97.51-97.5q0 18.87-13.63 32.5-13.63 13.63-32.5 13.63-19.92 0-33.55-13.63-13.63-13.63-13.63-32.5 0-18.88 13.63-32.51 13.63-13.63 33.55-13.63 18.87 0 32.5 13.63 13.63 13.63 13.63 32.51z" p-id="28110" fill="#efb336"></path></svg>