<?xml version="1.0" standalone="no"?><!DOCTYPE svg PUBLIC "-//W3C//DTD SVG 1.1//EN" "http://www.w3.org/Graphics/SVG/1.1/DTD/svg11.dtd"><svg t="1558265659567" class="icon" style="" viewBox="0 0 1024 1024" version="1.1" xmlns="http://www.w3.org/2000/svg" p-id="19345" xmlns:xlink="http://www.w3.org/1999/xlink" width="200" height="200"><defs><style type="text/css"></style></defs><path d="M928 896H96a32 32 0 0 1-32-32V416a32 32 0 0 1 64 0v416h768V320h-160a31.872 31.872 0 0 1-22.624-9.376L594.752 192h-165.504L310.624 310.624A31.904 31.904 0 0 1 288 320H96a32 32 0 0 1 0-64h178.752l118.624-118.624A31.904 31.904 0 0 1 416 128h192c8.512 0 16.64 3.36 22.624 9.376L749.248 256H928a32 32 0 0 1 32 32v576a32 32 0 0 1-32 32z" p-id="19346" fill="#dbdbdb"></path><path d="M512 768c-105.888 0-192-86.112-192-192s86.112-192 192-192 192 86.112 192 192-86.112 192-192 192z m0-320c-70.592 0-128 57.408-128 128s57.408 128 128 128 128-57.408 128-128-57.408-128-128-128z" p-id="19347" fill="#dbdbdb"></path></svg>