<?xml version="1.0" standalone="no"?><!DOCTYPE svg PUBLIC "-//W3C//DTD SVG 1.1//EN" "http://www.w3.org/Graphics/SVG/1.1/DTD/svg11.dtd"><svg t="1558196647309" class="icon" style="" viewBox="0 0 1024 1024" version="1.1" xmlns="http://www.w3.org/2000/svg" p-id="13303" xmlns:xlink="http://www.w3.org/1999/xlink" width="200" height="200"><defs><style type="text/css"></style></defs><path d="M896.994 860.757l-766.018 0c-39.904 0-72.366-32.464-72.366-72.368l0-524.972c0-39.905 32.461-72.366 72.366-72.366l766.018 0c39.905 0 72.368 32.461 72.368 72.366l0 524.972c0 39.904-32.463 72.368-72.368 72.368l0 0 0 0zM130.976 227.692c-19.697 0-35.723 16.028-35.723 35.726l0 524.972c0 19.699 16.026 35.726 35.723 35.726l766.018 0c19.699 0 35.727-16.023 35.727-35.726l0-524.972c0-19.698-16.022-35.726-35.727-35.726l-766.018 0zM130.976 227.692zM613.207 423.385c-42.305 0-76.715-34.416-76.715-76.715 0-42.305 34.414-76.715 76.715-76.715 42.299 0 76.715 34.41 76.715 76.715-0.001 42.299-34.416 76.715-76.715 76.715l0 0 0 0zM613.207 306.596c-22.098 0-40.074 17.971-40.074 40.074 0 22.092 17.974 40.073 40.074 40.073 22.094 0 40.073-17.981 40.073-40.073 0-22.098-17.975-40.074-40.073-40.074l0 0 0 0zM613.207 306.596zM884.464 717.419l-144.514-144.502c-3.622-3.628-8.378-5.401-13.122-5.361-4.745-0.038-9.503 1.739-13.122 5.361l-88.135 88.123c-0.188 0.194-0.357 0.403-0.541 0.605l-203.229-203.235c-3.645-3.638-8.431-5.415-13.199-5.349-4.769-0.066-9.561 1.712-13.202 5.349l-255.073 255.065c-7.154 7.153-7.154 18.754 0 25.915l0 0c7.158 7.153 18.759 7.153 25.915 0l242.359-242.356 288.909 288.902c7.155 7.153 18.761 7.153 25.915 0l0 0c7.155-7.15 7.155-18.75 0-25.905l-72.54-72.532c0.198-0.186 0.407-0.349 0.602-0.543l75.347-75.343 131.722 131.714c7.154 7.155 18.754 7.155 25.908 0l0.005 0c7.15-7.154 7.15-18.753-0.006-25.908l0 0 0 0zM884.464 717.419z" p-id="13304" fill="#1296db"></path></svg>