<?xml version="1.0" standalone="no"?><!DOCTYPE svg PUBLIC "-//W3C//DTD SVG 1.1//EN" "http://www.w3.org/Graphics/SVG/1.1/DTD/svg11.dtd"><svg t="1558196727557" class="icon" style="" viewBox="0 0 1024 1024" version="1.1" xmlns="http://www.w3.org/2000/svg" p-id="15467" xmlns:xlink="http://www.w3.org/1999/xlink" width="200" height="200"><defs><style type="text/css"></style></defs><path d="M519.65952 977.92c-255.85664 0-463.36-207.488-463.36-463.3344s207.50336-463.3344 463.36-463.3344c255.8208 0 463.3344 207.488 463.3344 463.3344S775.48032 977.92 519.65952 977.92z m0-886.39488c-233.69728 0-423.07072 189.3888-423.07072 423.06048 0 233.69728 189.37856 423.06048 423.07072 423.06048s423.03488-189.3632 423.03488-423.06048c0-233.67168-189.34272-423.06048-423.03488-423.06048z m0 703.09376c-147.07712 0-265.92768-106.7776-265.92768-237.7216h531.84c0.00512 130.944-118.85568 237.7216-265.91232 237.7216z m165.17632-398.89408c-26.19904 0-48.32768-22.15424-50.36544-50.36544 0-28.19584 22.17472-50.34496 50.36544-50.34496 28.19584 0 50.37056 22.15424 50.37056 50.34496 0 28.2112-22.17472 50.36544-50.37056 50.36544z m-330.37824 0c-28.20608 0-50.36544-22.15424-50.36544-50.36544 0-28.19584 22.16448-50.34496 50.36544-50.34496 28.19584 0 50.3552 22.15424 50.3552 50.34496 0 28.2112-22.15936 50.36544-50.3552 50.36544z" p-id="15468" fill="#f4ea2a"></path></svg>