<?xml version="1.0" standalone="no"?><!DOCTYPE svg PUBLIC "-//W3C//DTD SVG 1.1//EN" "http://www.w3.org/Graphics/SVG/1.1/DTD/svg11.dtd"><svg t="1558266312465" class="icon" style="" viewBox="0 0 1248 1024" version="1.1" xmlns="http://www.w3.org/2000/svg" p-id="26969" xmlns:xlink="http://www.w3.org/1999/xlink" width="243.75" height="200"><defs><style type="text/css"></style></defs><path d="M979.146 991.663H268.778c-6.954 0-13.908-2.782-18.776-7.997-4.868-5.216-7.302-11.822-6.606-19.124l55.633-678.378c1.043-12.866 4.868-28.165 28.164-28.165h592.842c13.213 0 27.47 15.3 28.165 28.165l56.676 677.335c0.348 6.954-2.434 15.299-7.302 20.167-4.868 5.215-11.474 7.997-18.428 7.997M327.54 935.334h621.006l-56.676-621.006H355.705L299.03 935.334h28.512m508.001-705.499h-56.676c0-117.525-97.706-141.17-141.17-141.17s-169.333 23.645-169.333 141.17h-56.329c0-141.517 132.477-197.498 215.927-197.498 83.102-0.348 207.581 55.98 207.581 197.498M420.727 419.684c0-29.903 24.687-53.895 55.285-53.895s55.286 24.34 55.286 53.895c0 29.902-24.687 53.894-55.286 53.894s-55.285-23.992-55.285-53.894z m298.68 0c0-29.903 24.688-53.895 55.286-53.895s55.286 24.34 55.286 53.895c0 29.902-24.687 53.894-55.286 53.894s-55.285-23.992-55.285-53.894z" p-id="26970" fill="#e98f36"></path></svg>