<?xml version="1.0" standalone="no"?><!DOCTYPE svg PUBLIC "-//W3C//DTD SVG 1.1//EN" "http://www.w3.org/Graphics/SVG/1.1/DTD/svg11.dtd"><svg t="1558266270641" class="icon" style="" viewBox="0 0 1024 1024" version="1.1" xmlns="http://www.w3.org/2000/svg" p-id="26168" xmlns:xlink="http://www.w3.org/1999/xlink" width="200" height="200"><defs><style type="text/css"></style></defs><path d="M275.34222222 175.55911111m-108.31644444 0a108.31644445 108.31644445 0 1 0 216.63288889 0 108.31644445 108.31644445 0 1 0-216.63288889 0Z" p-id="26169" fill="#1296db"></path><path d="M284.10311111 954.14044445h-17.408c-31.97155555 0-58.25422222-26.16888889-58.25422222-58.25422223l-51.2-486.17244444c0-31.97155555 26.16888889-58.25422222 58.25422222-58.25422223h119.92177778c31.97155555 0 58.25422222 26.16888889 58.25422222 58.25422223l-51.2 486.17244444c-0.22755555 32.08533333-26.39644445 58.25422222-58.368 58.25422223z" p-id="26170" fill="#1296db"></path><path d="M746.26844445 175.55911111m-108.31644445 0a108.31644445 108.31644445 0 1 0 216.63288889 0 108.31644445 108.31644445 0 1 0-216.63288889 0Z" p-id="26171" fill="#1296db"></path><path d="M755.02933333 954.14044445h-17.408c-31.97155555 0-58.25422222-26.16888889-58.25422222-58.25422223l-51.2-486.17244444c0-31.97155555 26.16888889-58.25422222 58.25422222-58.25422223h119.92177778c31.97155555 0 58.25422222 26.16888889 58.25422222 58.25422223l-51.2 486.17244444c-0.11377778 32.08533333-26.28266667 58.25422222-58.368 58.25422223z" p-id="26172" fill="#1296db"></path></svg>